<svg xmlns="http://www.w3.org/2000/svg" viewBox="0 0 200 200">
  <defs>
    <linearGradient id="bg" x1="0%" y1="0%" x2="100%" y2="100%">
      <stop offset="0%" stop-color="#0D1B3D"/>
      <stop offset="100%" stop-color="#1E3A8A"/>
    </linearGradient>
    <linearGradient id="hg" x1="0%" y1="0%" x2="100%" y2="100%">
      <stop offset="0%" stop-color="#1E3A8A"/>
      <stop offset="100%" stop-color="#34D399"/>
    </linearGradient>
  </defs>
  <rect width="200" height="200" rx="44" fill="url(#bg)"/>
  <polygon points="100,28 168,64 168,136 100,172 32,136 32,64"
           stroke="url(#hg)" stroke-width="8" fill="none" stroke-linejoin="round"/>
  <path d="M128 70 C128 60, 116 56, 102 56 C86 56, 74 64, 74 78
           C74 92, 88 96, 100 102 C112 108, 126 112, 126 126
           C126 140, 114 148, 98 148 C84 148, 72 142, 72 132"
        stroke="#34D399" stroke-width="10" stroke-linecap="round" fill="none"/>
</svg>
